<svg xmlns="http://www.w3.org/2000/svg" width="160" height="40" fill="none"><path fill="#fff" fill-rule="evenodd" d="M68.317 29.531V13.214H72.7V8.192h-4.383V0h-6.17v8.192h-3.793v5.022h3.793v16.317h6.17ZM6.214 18.237V29.53H0V8.192h6.214v3.103c.508-1.101 1.235-1.972 2.18-2.612a6.251 6.251 0 0 1 3.27-.915c3.3 0 5.53 1.25 6.694 3.75 1.526-2.53 3.597-3.795 6.213-3.795s4.615.841 5.996 2.522c1.38 1.682 2.071 4.07 2.071 7.166v12.12H26.49V18.147c0-1.31-.313-2.343-.938-3.102-.654-.76-1.511-1.139-2.572-1.139-1.061 0-1.912.357-2.551 1.072-.64.714-.96 1.8-.96 3.259V29.53h-6.213V18.013c-.058-1.28-.4-2.284-1.025-3.013-.64-.73-1.468-1.094-2.485-1.094-1.018 0-1.86.35-2.53 1.05-.668.699-1.002 1.793-1.002 3.28ZM57.498 8.192 44.635 40h-6.563l5.015-12.656-8.045-19.152h6.606l4.6 12.098 4.644-12.098h6.606Zm37.794 17.455c-1.933 2.902-5.109 4.346-9.527 4.33-3.067 0-5.654-1.034-7.762-3.102-2.079-2.098-3.118-4.792-3.118-8.08 0-3.289 1.04-5.96 3.118-8.014 2.079-2.053 4.651-3.073 7.718-3.058 3.067 0 5.618 1.042 7.653 3.125 2.035 2.083 3.06 4.792 3.074 8.125 0 .03-.03.685-.087 1.965H81.077c.116 1.13.683 2.008 1.7 2.633 1.018.625 2.166.938 3.445.938 1.992 0 3.51-.67 4.557-2.009l4.513 3.147Zm-5.102-8.683h-9.026c.233-1.16.814-2.068 1.745-2.723.9-.655 1.874-.967 2.921-.937a4.987 4.987 0 0 1 2.856.982c.858.625 1.36 1.518 1.504 2.678Zm22.898 12.255c-1.177.506-2.303.744-3.379.714-2.863 0-5.349-1.027-7.456-3.08-2.108-2.054-3.162-4.725-3.162-8.014 0-3.288 1.09-5.96 3.271-8.013 2.18-2.054 4.629-3.088 7.347-3.103 1.105 0 2.238.246 3.401.737 1.163.49 2.057 1.19 2.682 2.098V8.192h6.148v21.34h-6.148v-2.434c-.625.908-1.526 1.615-2.704 2.12Zm-2.376-5.313c-1.41 0-2.624-.476-3.641-1.428-1.047-.953-1.57-2.158-1.57-3.616 0-1.444.523-2.657 1.57-3.639 1.134-.967 2.376-1.45 3.728-1.45 1.352 0 2.522.476 3.51 1.428.989.952 1.483 2.172 1.483 3.66 0 1.489-.494 2.701-1.483 3.639-.988.938-2.187 1.406-3.597 1.406Zm22.81-5.67v11.295h-6.213V8.192h6.213v3.103c.509-1.101 1.236-1.972 2.181-2.612a6.248 6.248 0 0 1 3.27-.915c3.299 0 5.531 1.25 6.693 3.75 1.527-2.53 3.598-3.795 6.214-3.795 2.616 0 4.615.841 5.996 2.522 1.38 1.682 2.071 4.07 2.071 7.166v12.12h-6.148V18.147c0-1.31-.313-2.343-.938-3.102-.654-.76-1.511-1.139-2.573-1.139-1.061 0-1.911.357-2.55 1.072-.64.714-.96 1.8-.96 3.259V29.53h-6.213V18.013c-.059-1.28-.4-2.284-1.025-3.013-.64-.73-1.468-1.094-2.486-1.094-1.017 0-1.86.35-2.529 1.05-.668.699-1.003 1.793-1.003 3.28Z" clip-rule="evenodd"/></svg>